<?xml version="1.0" encoding="utf-8"?>
<!-- Generator: Adobe Illustrator 25.0.1, SVG Export Plug-In . SVG Version: 6.00 Build 0)  -->
<svg version="1.1" id="Layer_1" xmlns="http://www.w3.org/2000/svg" xmlns:xlink="http://www.w3.org/1999/xlink" x="0px" y="0px"
	 viewBox="0 0 500 600" style="enable-background:new 0 0 500 600;" xml:space="preserve">
<style type="text/css">
	.st0{fill:none;stroke:#000000;stroke-miterlimit:10;}
</style>
<path class="st0" d="M48.47,520.13h325.15c0,0,24.51-22.21-32.17-55.15c0,0-107-45.43-269.7-35.18c-2.17,0.14-4.35,0.08-6.52,0.02
	c-2.34-0.07-6.25,1.46-4.88,12.95v74.55c0,7.92,6.59,14.28,14.5,13.93c0.14-0.01,0.29-0.01,0.43-0.02h358.47
	c0,0,9.48,0.63,5.76-13.04c-0.91-3.33-1.32-6.78-1.22-10.23c0.34-11.34-0.65-35.79-15.65-36.09c0,0-16.18,0.61-30.01-4.71
	c-4.53-1.74-9.28-2.8-14.1-3.39c-11.96-1.45-32.8-3.6-45.87-2.84c-11.49,0.67-23.01-1.59-33.08-7.15
	c-9.27-5.12-18.99-12.86-24.45-24.26c-1.16-2.42-1.09-5.33,0.38-7.58c1.77-2.71,5.67-4.83,14.25-1.35
	c5.65,2.29,10.63,6.01,14.53,10.7c3.08,3.71,7.19,7.41,7.67,1.51l0.47-2.02c0.28-1.23,1.78-1.71,2.72-0.86
	c4.75,4.25,17.83,12.72,39.55,3.07c1.45-0.64,3.09,0.34,3.19,1.93c0.46,7.5-0.69,25.12-22.19,22.39c0,0-18.44-6.03,23.52-5.12
	c2.34,0.05,4.69,0.14,7.02,0.29c7.53,0.49,36.91,0.96,57.6-19.15c9.29-9.02,14.23-21.62,14.11-34.57
	c-0.23-25.15-1.7-76.61-9.4-110.43c-3.96-17.4-29.16-17.55-32.58-0.03c-0.06,0.3-0.11,0.59-0.14,0.88c0,0,2.86,53.58-1.92,72.43
	c-0.68,2.67-4.58,2.31-4.78-0.43c-0.86-11.92-2.16-37.64-0.06-64.21c0.51-6.49,2.67-12.73,6.19-18.2
	c5.32-8.29,13.07-21.39,14.81-29.93c0.46-2.26-0.83-4.52-2.99-5.37l0,0c-3.21-1.26-6.87-0.28-9.02,2.42
	c-8.58,10.77-31.16,36.53-48.2,32.57c0,0-7.47-0.75,3.09-7.86c8.56-5.77,15.64-13.5,20.41-22.65c12.15-23.3,29.13-64.76,4.84-78.25
	c0,0-22.98-9.19-25.28-33.32c0,0-3.71-20.56-9.66-26.91c-1.19-1.27-3.34-0.57-3.53,1.16c-0.46,4.21-0.26,12.45,5.77,21.84
	c2.83,4.4,1.93,10.31-2.12,13.63c-4.26,3.5-12.18,6.49-26.85,5.98c0,0-15.32-6.89-37.15,39.06c0,0,2.88-37.16-8.05-44.97
	c-1.62-1.16-3.88-0.61-4.79,1.15c-4.55,8.84-17.95,37.98,2.5,39.61c0,0,12.03-4.01,1.75-26.09c-1.66-3.56-2.17-7.54-1.41-11.39
	c2.45-12.42,9.33-38.86,24.17-44.1c0,0,26.17-8.13,36.82-19.36c6.38-6.73,1.74-17.82-7.54-18.03c-9.24-0.21-24.55,1.12-34.4,10.84
	c-3.04,3-0.98,8.19,3.28,8.33c5.98,0.19,15.63-0.44,30.55-3.61c0,0,8.47,3.58-21.46,9.25c-8.48,1.6-16.47,5.32-22.88,11.09
	c-5.51,4.96-10.67,11.73-11.43,20.06c-0.44,4.82,4.85,8.03,8.88,5.34c8.27-5.54,25.22-16.55,59.15-37.7c0,0,28.34-15.32,53.62,24.51
	c0,0,5.8,13.43,7.32,25.03c0.45,3.42,1.23,6.79,2.18,10.11c4.73,16.35,15.93,61.23,0.99,75.32c-1.43,1.35-3.77,0.38-3.81-1.58
	c-0.07-3.22-0.04-8.7,0.34-17.67c0.15-3.52-0.96-6.98-3.12-9.77l-6.43-8.27c-1.72-2.21-5.12-2.01-6.57,0.38
	c-9.51,15.68-39.46,63.04-56.38,66.23c0,0-57.06,2.3-49.02-57.83c0,0,2.3-11.87-7.28,2.3l-9.73,15.51
	c-2.89,4.61-6.94,8.37-11.76,10.91c-18.31,9.65-64.98,34.76-69.28,42.13c-5.18,8.87-13.21,28.1,37.24,134.87
	c3.54,7.49,8.43,14.26,14.41,19.99c6.21,5.95,14.19,13.93,18.56,19.65c3.89,5.1,8.92,9.26,14.71,12.03
	c2.32,1.11,4.55,1.89,6.22,1.89c0,0,29.65,1.51,24.95-16.71c-1.13-4.39-3.9-8.18-7.58-10.82c-9.14-6.57-31.91-21.78-50.23-24.64
	c-2.48-0.39-4.66-2-5.5-4.36c-1.35-3.79,0.66-9.57,19.66-14.41c2.98-0.76,5.91-1.68,8.77-2.81c12.05-4.78,46.66-17.13,62.77-8.15
	c2.88,1.6,5.98,2.74,9.14,3.65c19.23,5.55,74.09,22.86,61.72,36.5c0,0,0,10.03-32.87-11c-4.25-2.72-8.72-5.09-13.35-7.1
	c-14.89-6.48-46.22-19.18-53.74-14.84l-47.26,13.55c-1.9,0.54-2.48,3.01-0.97,4.28c3.26,2.76,12.69,6.84,38.42,11.4
	c4.23,0.75,8.41,1.74,12.52,2.97c9.24,2.78,26.06,7.92,35.83,11.39c5.35,1.9,11.1,2.32,16.67,1.22c11.36-2.25,30.24-5.67,39.38-5.59
	c3.48,0.03,6.73-1.64,8.67-4.53c7.84-11.72,25.78-38.45,29.64-43.51c5.11-6.7,7.82-9.61,7.82-9.61s32-31.8,12.75-22.34
	c-6.03,2.97-11.41,7.1-15.95,12.06c-10.78,11.8-33.06,37.22-33.35,45.93c0,0,18.38-11.49,33.7-47.11c0,0-8.81-2.68-45.19,22.6
	c0,0-19.37,7.17-32.77-54.86c-0.95-4.42-5.47-7.09-9.79-5.77c-9,2.75-27.52,10.87-65.59,32.99c-2.81,1.63-4.72,4.49-5.09,7.73
	c-0.47,4.16-0.38,9.9,2.61,14.08c0.94,1.31,3.03,0.57,2.94-1.04c-0.35-6.24,0.36-17.46,9.65-19.92c0,0,34.41-6.88,41.99-34.59
	c1.08-3.95-1.05-8.08-4.86-9.59l-33.16-13.14c-1.14-0.45-2.43-0.48-3.53,0.07c-2.37,1.19-2.28,4.61,28.27,13.97
	c0,0,12.19,6.77,12.05-37.95c-0.01-4.85-1.81-9.6-5.24-13.03c-3.43-3.43-7.02-9.14-5.11-17.05c1.01-4.2-4.33-6.9-7.25-3.72
	c-0.44,0.48-0.89,1.03-1.35,1.66c0,0-7.66,20.68-8.04-2.3c0,0,2.66-12.13-4.24-5.18c-1.98,2-3.41,4.47-4.26,7.15
	c-0.84,2.67-2.13,5.35-2.89,0.22c-0.45-3.03-0.33-6.12,0.34-9.1c0.79-3.52,1.21-8.11-3.83-2.56c-2.34,2.58-4.07,5.66-5.16,8.97
	c-2.13,6.41-6.3,17-7.56,6.01c-0.66-5.74,1.54-11.39,5.66-15.44c2.74-2.69,4.38-5.4-0.61-5.09c-7.21,0.45-13.84,4.51-17.24,10.88
	c-2.64,4.95-3.79,11.98,0.47,21.29c3.08,6.74,8.68,11.92,15.42,15c7.57,3.46,17.02,11.63,5.53,29.5l-22.98,80.81
	c0,0-9.08,14.46-2.97-17.77c0.89-4.69,0.05-9.55-2.38-13.67c-8.65-14.64-25.68-43.38-35.52-50.82c-0.71-0.54-1.5-0.95-2.32-1.29
	c-6.7-2.76-42.05-17.69-26.27-18.78c5.44-0.38,10.79,1.4,15.08,4.77c7.01,5.52,20.14,13.75,30.7,8.21c1.87-0.98,3.77-1.92,5.71-2.78
	c6.92-3.09,20.43-11.28,3.81-23.15c0,0-7.75-6.2-11.97-11.87c-3.41-4.57,1.37-10.79,6.66-8.66c2.65,1.07,6.02,3.33,10.29,7.51"/>
</svg>
